<?xml version="1.0" encoding="UTF-8"?>
<svg width="135px" height="40px" viewBox="0 0 135 40" version="1.1" xmlns="http://www.w3.org/2000/svg" xmlns:xlink="http://www.w3.org/1999/xlink">
    <!-- Generator: Sketch 50.2 (55047) - http://www.bohemiancoding.com/sketch -->
    <title>google-play-badge</title>
    <desc>Created with Sketch.</desc>
    <defs>
        <linearGradient x1="91.5361538%" y1="4.8388%" x2="-37.5592308%" y2="71.9684%" id="linearGradient-1">
            <stop stop-color="#00A0FF" offset="0%"></stop>
            <stop stop-color="#00A1FF" offset="0.657445%"></stop>
            <stop stop-color="#00BEFF" offset="26.01%"></stop>
            <stop stop-color="#00D2FF" offset="51.22%"></stop>
            <stop stop-color="#00DFFF" offset="76.04%"></stop>
            <stop stop-color="#00E3FF" offset="100%"></stop>
        </linearGradient>
        <linearGradient x1="107.728079%" y1="49.4282353%" x2="-130.665025%" y2="49.4282353%" id="linearGradient-2">
            <stop stop-color="#FFE000" offset="0%"></stop>
            <stop stop-color="#FFBD00" offset="40.87%"></stop>
            <stop stop-color="#FFA500" offset="77.54%"></stop>
            <stop stop-color="#FF9C00" offset="100%"></stop>
        </linearGradient>
        <linearGradient x1="86.3892216%" y1="17.8150459%" x2="-49.888024%" y2="194.392791%" id="linearGradient-3">
            <stop stop-color="#FF3A44" offset="0%"></stop>
            <stop stop-color="#C31162" offset="100%"></stop>
        </linearGradient>
        <linearGradient x1="-18.5790419%" y1="-54.5266535%" x2="42.2748503%" y2="24.6901019%" id="linearGradient-4">
            <stop stop-color="#32A071" offset="0%"></stop>
            <stop stop-color="#2DA771" offset="6.85%"></stop>
            <stop stop-color="#15CF74" offset="47.62%"></stop>
            <stop stop-color="#06E775" offset="80.09%"></stop>
            <stop stop-color="#00F076" offset="100%"></stop>
        </linearGradient>
    </defs>
    <g id="Page-1" stroke="none" stroke-width="1" fill="none" fill-rule="evenodd">
        <g id="Badges_en" transform="translate(-200.000000, -49.000000)" fill-rule="nonzero">
            <g id="google-play-badge" transform="translate(190.000000, 39.000000)">
                <rect id="Rectangle-path" fill-opacity="0" fill="#FFFFFF" x="0" y="0" width="155" height="60"></rect>
                <path d="M140,50 L15,50 C12.2,50 10,47.8 10,45 L10,15 C10,12.2 12.2,10 15,10 L140,10 C142.8,10 145,12.2 145,15 L145,45 C145,47.7 142.8,50 140,50 Z" id="Shape" fill="#000000"></path>
                <path d="M140,10.8 C142.3,10.8 144.2,12.7 144.2,15 L144.2,45 C144.2,47.3 142.3,49.2 140,49.2 L15,49.2 C12.7,49.2 10.8,47.3 10.8,45 L10.8,15 C10.8,12.7 12.7,10.8 15,10.8 L140,10.8 Z M140,10 L15,10 C12.2,10 10,12.2 10,15 L10,45 C10,47.8 12.2,50 15,50 L140,50 C142.8,50 145,47.8 145,45 L145,15 C145,12.3 142.8,10 140,10 Z" id="Shape" fill="#A6A6A6"></path>
                <g id="Group" transform="translate(51.000000, 16.000000)" fill="#FFFFFF" stroke="#FFFFFF" stroke-width="0.2">
                    <path d="M6.4,4.2 C6.4,5 6.2,5.7 5.7,6.2 C5.1,6.8 4.4,7.1 3.5,7.1 C2.6,7.1 1.9,6.8 1.3,6.2 C0.7,5.6 0.4,4.9 0.4,4 C0.4,3.1 0.7,2.4 1.3,1.8 C1.9,1.2 2.6,0.9 3.5,0.9 C3.9,0.9 4.3,1 4.7,1.2 C5.1,1.4 5.4,1.6 5.6,1.9 L5.1,2.4 C4.7,1.9 4.2,1.7 3.5,1.7 C2.9,1.7 2.3,1.9 1.9,2.4 C1.4,2.8 1.2,3.4 1.2,4.1 C1.2,4.8 1.4,5.4 1.9,5.8 C2.4,6.2 2.9,6.5 3.5,6.5 C4.2,6.5 4.7,6.3 5.2,5.8 C5.5,5.5 5.7,5.1 5.7,4.6 L3.5,4.6 L3.5,3.9 L6.4,3.9 C6.4,3.9 6.4,4.1 6.4,4.2 Z" id="Shape"></path>
                    <polygon id="Shape" points="11 1.7 8.3 1.7 8.3 3.6 10.8 3.6 10.8 4.3 8.3 4.3 8.3 6.2 11 6.2 11 7 7.5 7 7.5 1 11 1"></polygon>
                    <polygon id="Shape" points="14.3 7 13.5 7 13.5 1.7 11.8 1.7 11.8 1 16 1 16 1.7 14.3 1.7"></polygon>
                    <polygon id="Shape" points="18.9 7 18.9 1 19.7 1 19.7 7"></polygon>
                    <polygon id="Shape" points="23.1 7 22.3 7 22.3 1.7 20.6 1.7 20.6 1 24.7 1 24.7 1.7 23 1.7 23 7"></polygon>
                    <path d="M32.6,6.2 C32,6.8 31.3,7.1 30.4,7.1 C29.5,7.1 28.8,6.8 28.2,6.2 C27.6,5.6 27.3,4.9 27.3,4 C27.3,3.1 27.6,2.4 28.2,1.8 C28.8,1.2 29.5,0.9 30.4,0.9 C31.3,0.9 32,1.2 32.6,1.8 C33.2,2.4 33.5,3.1 33.5,4 C33.5,4.9 33.2,5.6 32.6,6.2 Z M28.8,5.7 C29.2,6.1 29.8,6.4 30.4,6.4 C31,6.4 31.6,6.2 32,5.7 C32.4,5.3 32.7,4.7 32.7,4 C32.7,3.3 32.5,2.7 32,2.3 C31.6,1.9 31,1.6 30.4,1.6 C29.8,1.6 29.2,1.8 28.8,2.3 C28.4,2.7 28.1,3.3 28.1,4 C28.1,4.7 28.3,5.3 28.8,5.7 Z" id="Shape"></path>
                    <polygon id="Shape" points="34.6 7 34.6 1 35.5 1 38.4 5.7 38.4 5.7 38.4 4.5 38.4 1 39.2 1 39.2 7 38.4 7 35.3 2.1 35.3 2.1 35.3 3.3 35.3 7"></polygon>
                </g>
                <path d="M78.1,31.8 C75.7,31.8 73.8,33.6 73.8,36.1 C73.8,38.5 75.7,40.4 78.1,40.4 C80.5,40.4 82.4,38.6 82.4,36.1 C82.4,33.5 80.5,31.8 78.1,31.8 Z M78.1,38.6 C76.8,38.6 75.7,37.5 75.7,36 C75.7,34.5 76.8,33.4 78.1,33.4 C79.4,33.4 80.5,34.4 80.5,36 C80.5,37.5 79.4,38.6 78.1,38.6 Z M68.8,31.8 C66.4,31.8 64.5,33.6 64.5,36.1 C64.5,38.5 66.4,40.4 68.8,40.4 C71.2,40.4 73.1,38.6 73.1,36.1 C73.1,33.5 71.2,31.8 68.8,31.8 Z M68.8,38.6 C67.5,38.6 66.4,37.5 66.4,36 C66.4,34.5 67.5,33.4 68.8,33.4 C70.1,33.4 71.2,34.4 71.2,36 C71.2,37.5 70.1,38.6 68.8,38.6 Z M57.7,33.1 L57.7,34.9 L62,34.9 C61.9,35.9 61.5,36.7 61,37.2 C60.4,37.8 59.4,38.5 57.7,38.5 C55,38.5 53,36.4 53,33.7 C53,31 55.1,28.9 57.7,28.9 C59.1,28.9 60.2,29.5 61,30.2 L62.3,28.9 C61.2,27.9 59.8,27.1 57.8,27.1 C54.2,27.1 51.1,30.1 51.1,33.7 C51.1,37.3 54.2,40.3 57.8,40.3 C59.8,40.3 61.2,39.7 62.4,38.4 C63.6,37.2 64,35.5 64,34.2 C64,33.8 64,33.4 63.9,33.1 L57.7,33.1 Z M103.1,34.5 C102.7,33.5 101.7,31.8 99.5,31.8 C97.3,31.8 95.5,33.5 95.5,36.1 C95.5,38.5 97.3,40.4 99.7,40.4 C101.6,40.4 102.8,39.2 103.2,38.5 L101.8,37.5 C101.3,38.2 100.7,38.7 99.7,38.7 C98.7,38.7 98.1,38.3 97.6,37.4 L103.3,35 L103.1,34.5 Z M97.3,35.9 C97.3,34.3 98.6,33.4 99.5,33.4 C100.2,33.4 100.9,33.8 101.1,34.3 L97.3,35.9 Z M92.6,40 L94.5,40 L94.5,27.5 L92.6,27.5 L92.6,40 Z M89.6,32.7 C89.1,32.2 88.3,31.7 87.3,31.7 C85.2,31.7 83.2,33.6 83.2,36 C83.2,38.4 85.1,40.2 87.3,40.2 C88.3,40.2 89.1,39.7 89.5,39.2 L89.6,39.2 L89.6,39.8 C89.6,41.4 88.7,42.3 87.3,42.3 C86.2,42.3 85.4,41.5 85.2,40.8 L83.6,41.5 C84.1,42.6 85.3,44 87.4,44 C89.6,44 91.4,42.7 91.4,39.6 L91.4,32 L89.6,32 L89.6,32.7 Z M87.4,38.6 C86.1,38.6 85,37.5 85,36 C85,34.5 86.1,33.4 87.4,33.4 C88.7,33.4 89.7,34.5 89.7,36 C89.7,37.5 88.7,38.6 87.4,38.6 Z M111.8,27.5 L107.3,27.5 L107.3,40 L109.2,40 L109.2,35.3 L111.8,35.3 C113.9,35.3 115.9,33.8 115.9,31.4 C115.9,29 113.9,27.5 111.8,27.5 Z M111.9,33.5 L109.2,33.5 L109.2,29.2 L111.9,29.2 C113.3,29.2 114.1,30.4 114.1,31.3 C114,32.4 113.2,33.5 111.9,33.5 Z M123.4,31.7 C122,31.7 120.6,32.3 120.1,33.6 L121.8,34.3 C122.2,33.6 122.8,33.4 123.5,33.4 C124.5,33.4 125.4,34 125.5,35 L125.5,35.1 C125.2,34.9 124.4,34.6 123.6,34.6 C121.8,34.6 120,35.6 120,37.4 C120,39.1 121.5,40.2 123.1,40.2 C124.4,40.2 125,39.6 125.5,39 L125.6,39 L125.6,40 L127.4,40 L127.4,35.2 C127.2,33 125.5,31.7 123.4,31.7 Z M123.2,38.6 C122.6,38.6 121.7,38.3 121.7,37.5 C121.7,36.5 122.8,36.2 123.7,36.2 C124.5,36.2 124.9,36.4 125.4,36.6 C125.2,37.8 124.2,38.6 123.2,38.6 Z M133.7,32 L131.6,37.4 L131.5,37.4 L129.3,32 L127.3,32 L130.6,39.6 L128.7,43.8 L130.6,43.8 L135.7,32 L133.7,32 Z M116.9,40 L118.8,40 L118.8,27.5 L116.9,27.5 L116.9,40 Z" id="Shape" fill="#FFFFFF"></path>
                <g id="Group" transform="translate(19.000000, 17.000000)">
                    <path d="M1.4,0.5 C1.1,0.8 0.9,1.3 0.9,1.9 L0.9,24 C0.9,24.6 1.1,25.1 1.4,25.4 L1.5,25.5 L13.9,13.1 L13.9,13 L13.9,12.9 L1.4,0.5 Z" id="Shape" fill="url(#linearGradient-1)"></path>
                    <path d="M18,17.3 L13.9,13.2 L13.9,13 L13.9,12.9 L18,8.8 L18.1,8.9 L23,11.7 C24.4,12.5 24.4,13.8 23,14.6 L18,17.3 Z" id="Shape" fill="url(#linearGradient-2)"></path>
                    <path d="M18.1,17.2 L13.9,13 L1.4,25.5 C1.9,26 2.6,26 3.5,25.6 L18.1,17.2" id="Shape" fill="url(#linearGradient-3)"></path>
                    <path d="M18.1,8.8 L3.5,0.5 C2.6,0 1.9,0.1 1.4,0.6 L13.9,13 L18.1,8.8 Z" id="Shape" fill="url(#linearGradient-4)"></path>
                    <g transform="translate(1.000000, 17.000000)" fill="#000000" id="Shape">
                        <path d="M17,0.1 L2.5,8.3 C1.7,8.8 1,8.7 0.5,8.3 L0.4,8.4 L0.5,8.5 C1,8.9 1.7,9 2.5,8.5 L17,0.1 Z" opacity="0.2"></path>
                        <path d="M0.4,8.3 C0.1,8 0,7.5 0,6.9 L0,7 C0,7.6 0.2,8.1 0.5,8.4 L0.5,8.3 L0.4,8.3 Z" opacity="0.12"></path>
                    </g>
                    <path d="M23,14.3 L18,17.1 L18.1,17.2 L23,14.4 C23.7,14 24,13.5 24,13 C24,13.5 23.6,13.9 23,14.3 Z" id="Shape" fill="#000000" opacity="0.12"></path>
                    <path d="M3.5,0.6 L23,11.7 C23.6,12.1 24,12.5 24,13 C24,12.5 23.7,12 23,11.6 L3.5,0.5 C2.1,-0.3 1,0.4 1,2 L1,2.1 C1,0.5 2.1,-0.2 3.5,0.6 Z" id="Shape" fill="#FFFFFF" opacity="0.25"></path>
                </g>
            </g>
        </g>
    </g>
</svg>