<?xml version="1.0" encoding="UTF-8"?>
<svg width="24px" height="24px" viewBox="0 0 24 24" version="1.1" xmlns="http://www.w3.org/2000/svg" xmlns:xlink="http://www.w3.org/1999/xlink">
    <!-- Generator: Sketch 50.2 (55047) - http://www.bohemiancoding.com/sketch -->
    <title>Icon/Original/challenge</title>
    <desc>Created with Sketch.</desc>
    <defs></defs>
    <g id="Icon/Original/challenge" stroke="none" stroke-width="1" fill="none" fill-rule="evenodd">
        <path d="M11.4524595,18.3089508 L13.1784392,16.6064911 L13.7146321,17.142684 L15.428658,15.428658 L17.142684,17.142684 L15.428658,18.8567099 L17.142684,20.5719481 L20.5719481,17.142684 L16.6306187,13.2013546 L18.3564033,11.4990873 L22.285974,15.428658 L24,17.142684 L22.285974,18.8567099 L18.8567099,22.285974 L17.142684,24 L15.428658,22.285974 L13.7146321,20.5719481 L12.0006061,18.8567099 L11.4524595,18.3089508 Z M5.78655605,12.6438721 L5.14329007,12.0006061 L1.71402596,8.57134199 L0,6.85731603 L1.71402596,5.14329007 L5.14329007,1.71402596 L6.85731603,-9.4469572e-16 L8.57134199,1.71402596 L12.5456467,5.68833064 L10.8561727,7.42690861 L6.85731603,3.42805192 L3.42805192,6.85731603 L4.95536301,8.38408724 L6.66938897,6.67006128 L8.38341493,8.38408724 L6.66938897,10.0993254 L7.47577255,10.905559 L5.78655605,12.6438721 Z M22.6680409,4.1708836 C23.1104699,4.60652155 23.1104699,5.29998602 22.6691388,5.73673528 L5.38257179,22.7877376 C5.17727596,22.9899981 4.90171847,23 4.61518259,23 L2.09783862,23 C1.49073386,23 1,22.7099451 1,22.0953845 L1,19.4937814 C1,19.2015039 1.11307738,18.9225622 1.31507969,18.7147452 L18.1998377,1.33923699 C18.6236034,0.902487729 19.3163396,0.882483946 19.748888,1.30812 L22.6680409,4.1708836 Z M19.4447867,6.05123921 C19.8740416,5.61671259 19.8740416,4.91324622 19.4447867,4.47983092 C19.0155318,4.0453043 18.3206,4.0453043 17.8924429,4.47983092 L4.285831,18.2524355 C3.85767394,18.6869621 3.85767394,19.3904285 4.285831,19.8249551 C4.7150859,20.2583704 5.41001775,20.2583704 5.83817482,19.8249551 L19.4447867,6.05123921 Z" id="Combined-Shape" fill="#8674d6" transform="translate(12.000000, 12.000000) scale(-1, -1) translate(-12.000000, -12.000000) "></path>
    </g>
</svg>