<?xml version="1.0" encoding="UTF-8"?>
<svg width="24px" height="24px" viewBox="0 0 24 24" version="1.1" xmlns="http://www.w3.org/2000/svg" xmlns:xlink="http://www.w3.org/1999/xlink">
    <!-- Generator: Sketch 50.2 (55047) - http://www.bohemiancoding.com/sketch -->
    <title>Icon/Original/training</title>
    <desc>Created with Sketch.</desc>
    <defs></defs>
    <g id="Icon/Original/training" stroke="none" stroke-width="1" fill="none" fill-rule="evenodd">
        <path d="M20.2810328,18.5898709 L20.2810328,11.2015889 C20.2810328,10.8838117 20.157896,10.6375381 19.9116187,10.4627607 C19.6653414,10.2879832 19.4071513,10.2482617 19.1370407,10.3435948 L12.6544191,12.0834161 L12.6544191,21.3545184 L19.6852036,19.4478649 C19.859981,19.3843095 20.0029786,19.2730892 20.1142006,19.1142006 C20.2254226,18.955312 20.2810328,18.7805372 20.2810328,18.5898709 Z M10.9145978,21.3545184 L10.9145978,12.0834161 L4.43197617,10.3435948 C4.16186558,10.2482617 3.90367551,10.2879832 3.65739821,10.4627607 C3.41112091,10.6375381 3.28798411,10.8838117 3.28798411,11.2015889 L3.28798411,18.5898709 C3.28798411,18.7805372 3.34359428,18.955312 3.45481629,19.1142006 C3.56603829,19.2730892 3.70903587,19.3843095 3.88381331,19.4478649 L10.9145978,21.3545184 Z M12.0585899,9.89076465 L20.2810328,7.69811321 C20.8371428,7.49155805 21.3574951,7.567029 21.8421053,7.9245283 C22.3267154,8.28202761 22.5690169,8.76265835 22.5690169,9.36643496 L22.5690169,19.7815293 C22.5690169,20.1628619 22.4617687,20.5084394 22.2472691,20.8182721 C22.0327695,21.1281048 21.7507465,21.338629 21.4011917,21.449851 L12.0585899,23.9523337 C11.9632567,23.9841114 11.8718972,24 11.7845084,24 C11.6971197,24 11.6057602,23.9841114 11.510427,23.9523337 L2.16782522,21.449851 C1.81827035,21.338629 1.53624735,21.1281048 1.32174777,20.8182721 C1.10724818,20.5084394 1,20.1628619 1,19.7815293 L1,9.36643496 C1,8.76265835 1.24230145,8.28202761 1.72691162,7.9245283 C2.21152179,7.567029 2.73187408,7.49155805 3.28798411,7.69811321 L11.4865938,9.89076465 C11.581927,9.92254236 11.6812309,9.93843098 11.7845084,9.93843098 C11.887786,9.93843098 11.9791456,9.92254236 12.0585899,9.89076465 Z M11.7725919,0 C12.9801451,0 14.0089332,0.425020576 14.8589871,1.27507448 C15.709041,2.12512838 16.1340616,3.14597219 16.1340616,4.33763654 C16.1340616,5.54518975 15.709041,6.57397787 14.8589871,7.42403178 C14.0089332,8.27408568 12.9801451,8.69910626 11.7725919,8.69910626 C10.5809275,8.69910626 9.56008369,8.27408568 8.71002979,7.42403178 C7.85997589,6.57397787 7.43495531,5.54518975 7.43495531,4.33763654 C7.43495531,3.14597219 7.85997589,2.12512838 8.71002979,1.27507448 C9.56008369,0.425020576 10.5809275,0 11.7725919,0 Z M11.796425,6.48262165 C12.3843128,6.48262165 12.8848043,6.27209744 13.2979146,5.8510427 C13.7110249,5.42998796 13.917577,4.92552429 13.917577,4.33763654 C13.917577,3.7497488 13.7110249,3.24528512 13.2979146,2.82423039 C12.8848043,2.40317565 12.3843128,2.19265144 11.796425,2.19265144 C11.1926484,2.19265144 10.6842126,2.40317565 10.2711023,2.82423039 C9.85799198,3.24528512 9.65143992,3.7497488 9.65143992,4.33763654 C9.65143992,4.92552429 9.85799198,5.42998796 10.2711023,5.8510427 C10.6842126,6.27209744 11.1926484,6.48262165 11.796425,6.48262165 Z" id="юда" fill="#000000"></path>
    </g>
</svg>