<?xml version="1.0" encoding="UTF-8"?>
<svg width="127px" height="127px" viewBox="0 0 127 127" version="1.1" xmlns="http://www.w3.org/2000/svg" xmlns:xlink="http://www.w3.org/1999/xlink">
    <!-- Generator: Sketch 50.2 (55047) - http://www.bohemiancoding.com/sketch -->
    <title>icon/color</title>
    <desc>Created with Sketch.</desc>
    <defs></defs>
    <g id="icon/color" stroke="none" stroke-width="1" fill="none" fill-rule="evenodd">
        <g id="paint-brush-palette" fill-rule="nonzero">
            <g id="paint-brush-palette-label" fill="#FFFFFF">
                <path d="M63.1205375,126.244088 C97.984375,126.244088 126.2478,97.9865125 126.2478,63.125 C126.2478,28.266425 97.984375,5.68434189e-14 63.1205375,5.68434189e-14 C28.263425,4.97379915e-14 0,28.266425 0,63.125 C0,97.9865125 28.263425,126.244088 63.1205375,126.244088 Z" id="Shape"></path>
            </g>
            <g id="paint-brush-palette-paint-brush-palette" transform="translate(30.250000, 30.375000)" fill="#FF6AC6">
                <path d="M64.6177875,7.8638375 C64.20215,7.7512875 63.5838625,7.8415 64.1395375,6.9624625 C64.69825,6.0821 65.605475,4.5781875 64.76075,3.7833875 C64.2096,3.2619625 63.3007875,3.698425 62.633425,3.1115125 C61.970475,2.52155 62.2163125,1.0340625 60.5433375,0.2378 C58.870375,-0.5518125 57.419325,1.735725 57.365725,2.095525 C57.306175,2.45825 57.72315,3.378175 58.763075,3.7461625 C59.798475,4.1126125 59.77015,4.294375 60.2110625,5.23365 C60.6550375,6.1721875 61.0319875,6.9885875 61.709725,7.314825 C62.3891625,7.6425875 62.5351625,8.629525 63.357425,8.1937875 C64.1858,7.758725 64.3808625,8.4805375 64.9038125,9.0824 C65.428225,9.681275 65.6873875,9.0459 65.6724875,8.615425 C65.6546625,8.1878125 65.094475,7.995675 64.6177875,7.8638375 Z" id="Shape"></path>
                <path d="M61.1108375,8.000125 C61.0647,7.9680875 61.0214875,7.93305 60.9678875,7.9085125 C60.2900375,7.5822125 59.913075,6.765875 59.4692375,5.8273375 C59.0281875,4.888 59.057975,4.7055125 58.0227,4.33905 C57.3775625,4.11115 56.973875,3.6709 56.7727,3.283575 L52.461425,9.19415 L56.27075,12.566225 L61.1108375,8.000125 Z" id="Shape"></path>
                <path d="M19.3555875,14.174375 C3.3311125,22.4104625 -1.4629,38.1979375 0.4857125,48.4697875 C1.30285,52.773625 4.978025,57.3054875 9.31915,55.3583375 C12.9995125,53.7107625 15.198425,49.0895375 19.7041625,47.6221375 C22.4989,46.7104 25.5201375,49.0835625 28.016225,52.8928875 C32.0847125,59.1021125 40.984375,66.629825 54.9462875,59.40155 C67.677725,52.810975 68.0471125,32.63605 58.5425875,21.16205 C50.2983375,11.2135 34.3088375,6.487975 19.3555875,14.174375 Z M18.9019125,25.8032875 C16.8408125,25.8032875 15.1708875,24.1318375 15.1708875,22.0700125 C15.1708875,20.008975 16.8408125,18.3404 18.9019125,18.3404 C20.9637375,18.3404 22.63525,20.008975 22.63525,22.0700125 C22.63525,24.1318375 20.9637375,25.8032875 18.9019125,25.8032875 Z M33.81725,23.1098625 C31.1625375,23.1098625 29.01135,20.9586875 29.01135,18.3039 C29.01135,15.6499625 31.1625375,13.4979875 33.81725,13.4979875 C36.4735,13.4979875 38.6217,15.6499625 38.6217,18.3039 C38.6217,20.9586875 36.4735,23.1098625 33.81725,23.1098625 Z M47.110225,56.4354875 C42.3356875,56.4354875 38.4667875,52.5636625 38.4667875,47.790475 C38.4667875,43.0158125 42.3356875,39.1469125 47.110225,39.1469125 C51.8834125,39.1469125 55.750725,43.0158125 55.750725,47.790475 C55.750725,52.5636625 51.8834125,56.4354875 47.110225,56.4354875 Z M49.6785875,33.0680625 C46.1701625,33.0680625 43.3233625,30.2233875 43.3233625,26.7113125 C43.3233625,23.2000125 46.1701625,20.3552875 49.6785875,20.3552875 C53.1899375,20.3552875 56.03685,23.2000125 56.03685,26.7113125 C56.0368625,30.2233875 53.1899375,33.0680625 49.6785875,33.0680625 Z" id="Shape"></path>
                <path d="M55.3023625,13.640325 L51.5139125,10.2868625 L49.911,12.133425 C51.4409125,12.9006375 52.9023375,13.7847875 54.28185,14.7739875 L55.3023625,13.640325 Z" id="Shape"></path>
                <path d="M20.26355,49.3353875 C18.1876125,50.0102 16.6345125,51.54755 14.9920625,53.174375 C14.0327125,54.1249375 13.0472375,55.0932 11.9359125,55.89765 L6.739625,61.88495 C5.8494875,62.9083875 5.655875,64.22235 6.30615,64.797425 L6.70165,65.144475 C7.35265,65.71955 8.6286625,65.36505 9.538075,64.3594375 L22.6672375,49.8075625 C22.0505375,49.4411 21.4598375,49.2295625 20.9287,49.2295625 C20.7000625,49.2295625 20.4818125,49.265325 20.26355,49.3353875 Z" id="Shape"></path>
            </g>
        </g>
    </g>
</svg>