<?xml version="1.0" encoding="UTF-8"?>
<svg width="127px" height="127px" viewBox="0 0 127 127" version="1.1" xmlns="http://www.w3.org/2000/svg" xmlns:xlink="http://www.w3.org/1999/xlink">
    <!-- Generator: Sketch 50.2 (55047) - http://www.bohemiancoding.com/sketch -->
    <title>icon/layout</title>
    <desc>Created with Sketch.</desc>
    <defs></defs>
    <g id="icon/layout" stroke="none" stroke-width="1" fill="none" fill-rule="evenodd">
        <g id="fill-stroke" fill-rule="nonzero">
            <g id="fill-stroke-label" fill="#FFFFFF">
                <path d="M63.123525,0 C28.2619625,0 0,28.2619625 0,63.12055 C0,97.982125 28.2619625,126.244088 63.123525,126.244088 C97.9813125,126.244088 126.2478,97.982125 126.2478,63.12055 C126.2478,28.2619625 97.9813125,0 63.123525,0 Z" id="Shape"></path>
            </g>
            <g id="fill-stroke-fill-stroke" transform="translate(32.625000, 32.500000)" fill="#FFB011">
                <path d="M41.950925,38.24945 L41.950925,3.9257875 C41.950925,1.819275 40.2436625,0.112 38.1372,0.112 L3.8141375,0.112 C1.7076375,0.112 0.0003625,1.819275 0.0003625,3.9257875 L0.0003625,38.24945 C0.0003625,40.356025 1.7076375,42.0633 3.8141375,42.0633 L38.1372,42.0633 C40.24365,42.0633 41.950925,40.356025 41.950925,38.24945 Z" id="Shape"></path>
                <path d="M57.205925,19.1807875 L45.7646375,19.1807875 L45.7646375,22.994575 L57.205925,22.994575 L57.205925,57.3183 L22.882925,57.3183 L22.882925,45.8770125 L19.06915,45.8770125 L19.06915,57.3183 C19.06915,59.42475 20.7763625,61.132025 22.882925,61.132025 L57.205925,61.132025 C59.312375,61.132025 61.01965,59.4247625 61.01965,57.3183 L61.01965,22.994575 C61.01965,20.888 59.312375,19.1807875 57.205925,19.1807875 Z" id="Shape"></path>
            </g>
        </g>
    </g>
</svg>