<?xml version="1.0" encoding="UTF-8"?>
<svg width="127px" height="127px" viewBox="0 0 127 127" version="1.1" xmlns="http://www.w3.org/2000/svg" xmlns:xlink="http://www.w3.org/1999/xlink">
    <!-- Generator: Sketch 50.2 (55047) - http://www.bohemiancoding.com/sketch -->
    <title>icon/font</title>
    <desc>Created with Sketch.</desc>
    <defs></defs>
    <g id="icon/font" stroke="none" stroke-width="1" fill="none" fill-rule="evenodd">
        <g id="typography">
            <g id="typography-label" fill="#FFFFFF" fill-rule="nonzero">
                <path d="M63.122,0 C28.2619625,0 0,28.2619625 0,63.12055 C0,97.982125 28.2619625,126.244088 63.122,126.244088 C97.9813125,126.244088 126.2478,97.982125 126.2478,63.12055 C126.2478,28.2619625 97.9813125,0 63.122,0 Z" id="Shape"></path>
            </g>
            <g id="typography-typography" transform="translate(23.875000, 38.375000)" fill="#2BBFFF">
                <path d="M14.0319164,28.402768 L30.436379,28.402768 L22.3697218,5.82968507 L22.2341477,5.82968507 L14.0319164,28.402768 Z M18.8447959,0 L25.9624347,0 L44.8750176,48.3999435 L37.7573789,48.3999435 L32.4699901,33.8257308 L11.9983053,33.8257308 L6.57534246,48.3999435 L0,48.3999435 L18.8447959,0 Z M80,48.2643694 C79.0057852,48.85186 77.6274626,49.1456009 75.8649908,49.1456009 C74.3736686,49.1456009 73.1874073,48.727585 72.3061714,47.8915407 C71.4249356,47.0554964 70.9843242,45.6884716 70.9843242,43.7904251 C69.4026188,45.6884716 67.5610895,47.0554964 65.4596808,47.8915407 C63.3582722,48.727585 61.0874292,49.1456009 58.6470837,49.1456009 C57.0653783,49.1456009 55.5627807,48.9648373 54.1392459,48.6033046 C52.715711,48.2417719 51.4842588,47.6768856 50.4448524,46.9086287 C49.405446,46.1403718 48.580712,45.1348742 47.9706256,43.8921056 C47.3605393,42.6493371 47.0555006,41.1467395 47.0555006,39.3842678 C47.0555006,37.3958381 47.3944324,35.7689655 48.0723062,34.5036012 C48.7501799,33.2382369 49.6427003,32.2101438 50.7498941,31.4192911 C51.8570879,30.6284384 53.1224332,30.0296589 54.5459681,29.6229346 C55.969503,29.2162104 57.4269096,28.8772786 58.9182319,28.6061291 C60.4999373,28.289788 62.0025349,28.0525357 63.4260698,27.8943652 C64.8496046,27.7361947 66.1036523,27.5102401 67.1882502,27.2164948 C68.2728482,26.9227496 69.1314754,26.493436 69.7641576,25.9285412 C70.3968398,25.3636464 70.7131761,24.5389124 70.7131761,23.4543144 C70.7131761,22.18895 70.4759239,21.1721547 70.0014122,20.4038978 C69.5269006,19.6356408 68.9168234,19.0481591 68.1711623,18.6414348 C67.4255011,18.2347106 66.5894694,17.9635651 65.6630419,17.8279904 C64.7366145,17.6924156 63.8214987,17.6246293 62.917667,17.6246293 C60.4773215,17.6246293 58.4437308,18.0878361 56.8168338,19.0142635 C55.1899368,19.940691 54.3087141,21.6918386 54.1731394,24.2677588 L48.4112414,24.2677588 C48.5016245,22.0985628 48.9535336,20.2683311 49.7669821,18.7770089 C50.5804306,17.2856867 51.6650123,16.0768299 53.0207598,15.1504025 C54.3765073,14.223975 55.9242958,13.5574092 57.6641717,13.1506849 C59.4040477,12.7439607 61.2681725,12.5406016 63.2566022,12.5406016 C64.8383076,12.5406016 66.4086915,12.6535789 67.9678012,12.8795368 C69.5269108,13.1054947 70.9391266,13.5687015 72.2044909,14.269171 C73.4698552,14.9696406 74.4866506,15.9525427 75.2549075,17.2179071 C76.0231644,18.4832714 76.4072871,20.1327394 76.4072871,22.1663607 L76.4072871,40.1977122 C76.4072871,41.5534597 76.4863712,42.5476596 76.6445417,43.1803418 C76.8027123,43.8130239 77.3337054,44.1293603 78.2375371,44.1293603 C78.7346445,44.1293603 79.3221263,44.016383 80,43.7904251 L80,48.2643694 Z M70.6453891,30.300805 C69.9223237,30.843104 68.9733147,31.2385244 67.7983336,31.4870781 C66.6233524,31.7356318 65.3919002,31.9389909 64.1039401,32.0971614 C62.81598,32.255332 61.5167415,32.4360956 60.2061856,32.6394577 C58.8956297,32.8428198 57.7206661,33.1704539 56.6812597,33.6223697 C55.6418533,34.0742855 54.7945238,34.7182559 54.1392459,35.5543002 C53.4839679,36.3903445 53.1563339,37.5314149 53.1563339,38.9775455 C53.1563339,39.9265688 53.3483952,40.7287074 53.7325237,41.3839853 C54.1166521,42.0392633 54.6137521,42.5702564 55.2238384,42.9769806 C55.8339248,43.3837049 56.5456816,43.6774458 57.3591301,43.8582121 C58.1725786,44.0389784 59.0312058,44.1293603 59.9350374,44.1293603 C61.8330839,44.1293603 63.4599565,43.8695125 64.815704,43.3498093 C66.1714515,42.8301061 67.2786287,42.174838 68.1372687,41.3839853 C68.9959088,40.5931326 69.6285815,39.7345054 70.0353057,38.8080779 C70.44203,37.8816505 70.6453891,37.0117256 70.6453891,36.1982771 L70.6453891,30.300805 Z" id="Aa"></path>
            </g>
        </g>
    </g>
</svg>